HIERARCHY
ROOT joint_Root
{
	OFFSET 0.0 0.0 0.0
	CHANNELS 6 Xposition Yposition Zposition Zrotation Xrotation Yrotation 
	JOINT Hips
	{
		OFFSET -0.726466 93.3139 -2.00062
		CHANNELS 6 Xposition Yposition Zposition Zrotation Xrotation Yrotation 
		JOINT Spine
		{
			OFFSET 15.7357 0.0 0.0
			CHANNELS 6 Xposition Yposition Zposition Zrotation Xrotation Yrotation 
			JOINT Chest
			{
				OFFSET 8.98455 -0.406207 0.0
				CHANNELS 6 Xposition Yposition Zposition Zrotation Xrotation Yrotation 
				JOINT Neck
				{
					OFFSET 16.3773 0.0 0.0
					CHANNELS 6 Xposition Yposition Zposition Zrotation Xrotation Yrotation 
					JOINT Head
					{
						OFFSET 6.45672 0.0 0.0
						CHANNELS 6 Xposition Yposition Zposition Zrotation Xrotation Yrotation 
						End Site
						{
							OFFSET 0.0 0.0 0.0
						}
					}
				}
				JOINT Shoulder_L
				{
					OFFSET 12.9942 -0.242716 4.98039
					CHANNELS 6 Xposition Yposition Zposition Zrotation Xrotation Yrotation 
					JOINT UpperArm_L
					{
						OFFSET 5.34809 0.0 0.0
						CHANNELS 6 Xposition Yposition Zposition Zrotation Xrotation Yrotation 
						JOINT LowerArm_L
						{
							OFFSET 24.3286 1.87007e-05 0.0
							CHANNELS 6 Xposition Yposition Zposition Zrotation Xrotation Yrotation 
							JOINT Hand_L
							{
								OFFSET 22.2916 0.0 0.0
								CHANNELS 6 Xposition Yposition Zposition Zrotation Xrotation Yrotation 
								End Site
								{
									OFFSET 0.0 0.0 0.0
								}
							}
						}
					}
				}
				JOINT Shoulder_R
				{
					OFFSET 12.9945 -0.242716 -4.98039
					CHANNELS 6 Xposition Yposition Zposition Zrotation Xrotation Yrotation 
					JOINT UpperArm_R
					{
						OFFSET -5.34813 0.0 0.0
						CHANNELS 6 Xposition Yposition Zposition Zrotation Xrotation Yrotation 
						JOINT LowerArm_R
						{
							OFFSET -24.3289 0.000322201 0.0
							CHANNELS 6 Xposition Yposition Zposition Zrotation Xrotation Yrotation 
							JOINT Hand_R
							{
								OFFSET -22.2915 -0.000108084 0.0
								CHANNELS 6 Xposition Yposition Zposition Zrotation Xrotation Yrotation 
								End Site
								{
									OFFSET 0.0 0.0 0.0
								}
							}
						}
					}
				}
			}
		}
		JOINT UpperLeg_L
		{
			OFFSET -2.19248 -6.46944 0.0
			CHANNELS 6 Xposition Yposition Zposition Zrotation Xrotation Yrotation 
			JOINT LowerLeg_L
			{
				OFFSET 39.0811 0.0 -1.23785e-05
				CHANNELS 6 Xposition Yposition Zposition Zrotation Xrotation Yrotation 
				JOINT Foot_L
				{
					OFFSET 40.9854 0.0 -1.26872e-05
					CHANNELS 6 Xposition Yposition Zposition Zrotation Xrotation Yrotation 
					JOINT Toes_L
					{
						OFFSET 11.7543 0.0 0.0
						CHANNELS 6 Xposition Yposition Zposition Zrotation Xrotation Yrotation 
						End Site
						{
							OFFSET 0.0 0.0 0.0
						}
					}
				}
			}
		}
		JOINT UpperLeg_R
		{
			OFFSET -2.19251 6.46944 0.0
			CHANNELS 6 Xposition Yposition Zposition Zrotation Xrotation Yrotation 
			JOINT LowerLeg_R
			{
				OFFSET -39.0811 -0.00228153 -0.0401928
				CHANNELS 6 Xposition Yposition Zposition Zrotation Xrotation Yrotation 
				JOINT Foot_R
				{
					OFFSET -40.9854 0.0 0.0
					CHANNELS 6 Xposition Yposition Zposition Zrotation Xrotation Yrotation 
					JOINT Toes_R
					{
						OFFSET -11.7543 0.0 0.0
						CHANNELS 6 Xposition Yposition Zposition Zrotation Xrotation Yrotation 
						End Site
						{
							OFFSET 0.0 0.0 0.0
						}
					}
				}
			}
		}
	}
}
MOTION
Frames:	8
Frame Time:	0.0333333
0.000000 0.000000 0.000000 0.000000 0.000000 -0.000000 0.460892 92.222600 -3.579660 86.832800 -4.093000 4.042960 15.735700 0.000005 -0.000001 99.621400 84.738500 -102.774000 8.984550 -0.406207 -0.000000 2.670320 1.897230 -6.343310 16.377300 -0.000001 -0.000001 3.840160 -2.973390 -0.428918 6.456720 -0.000001 -0.000000 -3.497910 -2.596670 -3.275990 12.994200 -0.242716 4.980390 -87.477200 -7.088910 -70.352500 5.348090 -0.000007 -0.000001 -0.289255 75.604300 -50.317600 24.328600 0.000019 0.000005 11.796600 0.839535 -85.987000 22.291600 -0.000001 0.000005 42.184800 5.519370 -34.906100 12.994500 -0.242716 -4.980390 93.491400 -7.410010 -64.682300 -5.348130 -0.000001 -0.000004 -59.510800 -48.631200 -125.288000 -24.328900 0.000322 -0.000009 -0.348818 -0.300321 -49.175900 -22.291500 -0.000108 -0.000004 21.175500 5.461960 -5.072760 -2.192480 -6.469440 -0.000000 -168.352000 -17.577900 -3.360010 39.081100 -0.000007 -0.000012 -0.188551 0.453387 22.581400 40.985400 -0.000006 -0.000013 -5.822590 0.633742 -62.941400 11.754300 -0.000000 0.000003 -0.000178 -0.001682 -16.641200 -2.192510 6.469440 -0.000001 174.857000 18.505300 178.130000 -39.081100 -0.002282 -0.040193 0.033251 -0.089005 18.584900 -40.985400 0.000008 0.000006 -1.275840 4.360900 -60.471500 -11.754300 -0.000006 -0.000006 -0.005728 -0.068346 -19.354500
0.000000 0.000000 0.000000 0.000000 0.000000 -0.000000 0.457720 92.212100 -3.590870 86.769400 -4.098060 4.119600 15.735700 0.000005 -0.000001 99.943500 84.734100 -103.142000 8.984550 -0.406207 -0.000000 2.671620 1.958990 -6.437740 16.377300 -0.000001 -0.000001 3.942900 -3.056090 -0.195008 6.456720 -0.000001 -0.000000 -3.380430 -2.692700 -3.092030 12.994200 -0.242716 4.980390 -87.484800 -7.076200 -70.374600 5.348090 -0.000007 -0.000001 -0.661944 75.606100 -49.934200 24.328600 0.000019 0.000005 11.694900 0.821966 -86.035600 22.291600 -0.000001 0.000005 42.186800 5.519260 -34.911000 12.994500 -0.242716 -4.980390 93.519300 -7.441400 -64.598700 -5.348130 -0.000001 -0.000004 -59.674600 -48.315400 -125.752000 -24.328900 0.000322 -0.000009 -0.443061 -0.385394 -48.906300 -22.291500 -0.000108 -0.000004 21.146600 5.468240 -5.304610 -2.192480 -6.469440 -0.000000 -168.269000 -17.509500 -3.349770 39.081100 -0.000007 -0.000012 -0.188895 0.451424 22.706800 40.985400 -0.000006 -0.000013 -5.826890 0.621050 -63.000600 11.754300 -0.000000 0.000003 -0.000161 -0.001542 -16.636100 -2.192510 6.469440 -0.000001 174.903000 18.545700 178.166000 -39.081100 -0.002282 -0.040193 0.033589 -0.089688 18.646700 -40.985400 0.000008 0.000006 -1.256800 4.380370 -60.476200 -11.754300 -0.000006 -0.000006 -0.005828 -0.069261 -19.391800
0.000000 0.000000 0.000000 0.000000 0.000000 -0.000000 0.480291 92.213000 -3.588290 86.748200 -4.126010 4.189790 15.735700 0.000005 -0.000001 100.239000 84.742500 -103.500000 8.984550 -0.406207 -0.000000 2.648630 2.012840 -6.563400 16.377300 -0.000001 -0.000001 3.956590 -3.081880 -0.059963 6.456720 -0.000001 -0.000000 -3.199080 -2.753730 -2.943590 12.994200 -0.242716 4.980390 -87.492600 -7.051600 -70.368500 5.348090 -0.000007 -0.000001 -0.855006 75.584100 -49.706300 24.328600 0.000019 0.000005 11.740900 0.818179 -86.069700 22.291600 -0.000001 0.000005 42.117200 5.520350 -34.864100 12.994500 -0.242716 -4.980390 93.535300 -7.443980 -64.505400 -5.348130 -0.000001 -0.000004 -59.812400 -48.490600 -125.411000 -24.328900 0.000322 -0.000009 -0.522826 -0.468919 -48.048100 -22.291500 -0.000108 -0.000004 21.096700 5.469800 -5.363060 -2.192480 -6.469440 -0.000000 -168.240000 -17.472900 -3.276580 39.081100 -0.000007 -0.000012 -0.189581 0.452646 22.725600 40.985400 -0.000006 -0.000013 -5.826240 0.570845 -63.024000 11.754300 -0.000000 0.000003 -0.000168 -0.001595 -16.638000 -2.192510 6.469440 -0.000001 174.886000 18.548200 178.208000 -39.081100 -0.002282 -0.040193 0.034513 -0.092146 18.699500 -40.985400 0.000008 0.000006 -1.156240 4.424720 -60.449000 -11.754300 -0.000006 -0.000006 -0.006053 -0.071313 -19.475500
0.000000 0.000000 0.000000 0.000000 0.000000 -0.000000 0.510520 92.196900 -3.573280 86.727300 -4.193060 4.248650 15.735700 0.000005 -0.000001 100.401000 84.776900 -103.731000 8.984550 -0.406207 -0.000000 2.577860 2.034830 -6.699280 16.377300 -0.000001 -0.000001 4.036810 -3.057270 -0.052321 6.456720 -0.000001 -0.000000 -3.120410 -2.748950 -2.836660 12.994200 -0.242716 4.980390 -87.488800 -7.052980 -70.344600 5.348090 -0.000007 -0.000001 -1.272220 75.577300 -49.252800 24.328600 0.000019 0.000005 11.724200 0.806113 -86.121800 22.291600 -0.000001 0.000005 42.104700 5.521370 -34.820600 12.994500 -0.242716 -4.980390 93.512900 -7.389320 -64.483700 -5.348130 -0.000001 -0.000004 -59.919500 -48.971100 -124.332000 -24.328900 0.000322 -0.000009 -0.571275 -0.536696 -46.730100 -22.291500 -0.000108 -0.000004 20.981500 5.467800 -5.288220 -2.192480 -6.469440 -0.000000 -168.218000 -17.538900 -3.263320 39.081100 -0.000007 -0.000012 -0.188519 0.446659 22.883100 40.985400 -0.000006 -0.000013 -5.798280 0.578955 -63.124800 11.754300 -0.000000 0.000003 -0.000150 -0.001450 -16.632700 -2.192510 6.469440 -0.000001 174.855000 18.518900 178.254000 -39.081100 -0.002282 -0.040193 0.033842 -0.089962 18.738900 -40.985400 0.000008 0.000006 -1.240510 4.472600 -60.475400 -11.754300 -0.000006 -0.000006 -0.005822 -0.069209 -19.389600
0.000000 0.000000 0.000000 0.000000 0.000000 -0.000000 0.555475 92.197200 -3.530600 86.747700 -4.361240 4.349850 15.735700 0.000005 -0.000001 100.576000 84.806700 -103.975000 8.984550 -0.406207 -0.000000 2.515820 2.060340 -6.836510 16.377300 -0.000001 -0.000001 4.058050 -2.943680 -0.142682 6.456720 -0.000001 -0.000000 -2.978820 -2.592200 -2.924970 12.994200 -0.242716 4.980390 -87.508700 -6.964890 -70.262000 5.348090 -0.000007 -0.000001 -1.568120 75.557600 -48.839800 24.328600 0.000019 0.000005 11.660900 0.790564 -86.175200 22.291600 -0.000001 0.000005 42.002400 5.519640 -34.894500 12.994500 -0.242716 -4.980390 93.463800 -7.285460 -64.484400 -5.348130 -0.000001 -0.000004 -59.900000 -49.629900 -122.634000 -24.328900 0.000322 -0.000009 -0.777479 -0.776580 -44.993300 -22.291500 -0.000108 -0.000004 21.058400 5.467490 -5.276790 -2.192480 -6.469440 -0.000000 -168.202000 -17.619000 -3.060840 39.081100 -0.000007 -0.000012 -0.191280 0.453820 22.855100 40.985400 -0.000006 -0.000013 -5.800930 0.519361 -63.173700 11.754300 -0.000000 0.000003 -0.000163 -0.001560 -16.636700 -2.192510 6.469440 -0.000001 174.771000 18.448600 178.348000 -39.081100 -0.002282 -0.040193 0.033885 -0.089952 18.765400 -40.985400 0.000008 0.000006 -1.241850 4.561240 -60.451800 -11.754300 -0.000006 -0.000006 -0.006093 -0.071678 -19.490400
0.000000 0.000000 0.000000 0.000000 0.000000 -0.000000 0.610626 92.176800 -3.490740 86.704900 -4.570630 4.469620 15.735700 0.000005 -0.000001 100.562000 84.835700 -103.995000 8.984550 -0.406207 -0.000000 2.459750 2.050500 -6.903220 16.377300 -0.000001 -0.000001 4.090220 -2.803990 -0.276250 6.456720 -0.000001 -0.000000 -2.951460 -2.414610 -3.134340 12.994200 -0.242716 4.980390 -87.540200 -6.849430 -70.190400 5.348090 -0.000007 -0.000001 -1.906730 75.528100 -48.356400 24.328600 0.000019 0.000005 11.654400 0.772761 -86.258900 22.291600 -0.000001 0.000005 41.941800 5.520360 -34.863800 12.994500 -0.242716 -4.980390 93.394800 -7.156470 -64.537700 -5.348130 -0.000001 -0.000004 -59.644700 -50.440400 -120.274000 -24.328900 0.000322 -0.000009 -0.867507 -0.931519 -42.927600 -22.291500 -0.000108 -0.000004 21.038800 5.467270 -5.268520 -2.192480 -6.469440 -0.000000 -168.137000 -17.633000 -2.938620 39.081100 -0.000007 -0.000012 -0.194408 0.457166 23.037700 40.985400 -0.000006 -0.000013 -5.805970 0.393392 -63.338800 11.754300 -0.000000 0.000003 -0.000146 -0.001423 -16.631700 -2.192510 6.469440 -0.000001 174.741000 18.330900 178.438000 -39.081100 -0.002282 -0.040193 0.033190 -0.087528 18.841100 -40.985400 0.000008 0.000006 -1.320340 4.633900 -60.475000 -11.754300 -0.000006 -0.000006 -0.005953 -0.070409 -19.438600
0.000000 0.000000 0.000000 0.000000 0.000000 -0.000000 0.686400 92.156000 -3.433160 86.748000 -4.883020 4.591390 15.735700 0.000005 -0.000001 100.541000 84.860400 -104.045000 8.984550 -0.406207 -0.000000 2.413120 2.042370 -7.045410 16.377300 -0.000001 -0.000001 4.020920 -2.605610 -0.488046 6.456720 -0.000001 -0.000000 -2.933450 -2.218800 -3.167800 12.994200 -0.242716 4.980390 -87.545600 -6.783810 -70.055800 5.348090 -0.000007 -0.000001 -2.146320 75.454800 -48.022900 24.328600 0.000019 0.000005 11.813400 0.771574 -86.316300 22.291600 -0.000001 0.000005 41.996500 5.522360 -34.778400 12.994500 -0.242716 -4.980390 93.316200 -7.025760 -64.652100 -5.348130 -0.000001 -0.000004 -59.282300 -51.253500 -117.277000 -24.328900 0.000322 -0.000009 -0.824392 -0.953254 -40.818100 -22.291500 -0.000108 -0.000004 21.032000 5.459330 -4.976450 -2.192480 -6.469440 -0.000000 -168.184000 -17.709500 -2.772430 39.081100 -0.000007 -0.000012 -0.195283 0.456043 23.181500 40.985400 -0.000006 -0.000013 -5.814120 0.121200 -63.506300 11.754300 -0.000000 0.000003 -0.000161 -0.001545 -16.636200 -2.192510 6.469440 -0.000001 174.604000 18.112900 178.519000 -39.081100 -0.002282 -0.040193 0.032743 -0.085890 18.907500 -40.985400 0.000008 0.000006 -1.421910 4.760410 -60.529100 -11.754300 -0.000006 -0.000006 -0.006418 -0.074586 -19.609000
0.000000 0.000000 0.000000 0.000000 0.000000 -0.000000 0.751744 92.135800 -3.395370 86.751900 -5.210540 4.736280 15.735700 0.000005 -0.000001 100.495000 84.875700 -104.057000 8.984550 -0.406207 -0.000000 2.385690 2.032270 -7.159560 16.377300 -0.000001 -0.000001 3.918580 -2.413600 -0.661629 6.456720 -0.000001 -0.000000 -2.956040 -2.012130 -3.219650 12.994200 -0.242716 4.980390 -87.562800 -6.713810 -69.995500 5.348090 -0.000007 -0.000001 -2.411820 75.388000 -47.626300 24.328600 0.000019 0.000005 11.785000 0.742813 -86.444400 22.291600 -0.000001 0.000005 41.808200 5.522150 -34.787200 12.994500 -0.242716 -4.980390 93.216800 -6.843430 -64.747800 -5.348130 -0.000001 -0.000004 -58.561100 -51.985800 -113.609000 -24.328900 0.000322 -0.000009 -0.821610 -1.026680 -38.634700 -22.291500 -0.000108 -0.000004 20.809600 5.456920 -4.888840 -2.192480 -6.469440 -0.000000 -168.147000 -17.811000 -2.571180 39.081100 -0.000007 -0.000012 -0.197137 0.457357 23.318000 40.985400 -0.000006 -0.000013 -5.819530 -0.006921 -63.661400 11.754300 -0.000000 0.000003 -0.000158 -0.001515 -16.635100 -2.192510 6.469440 -0.000001 174.519000 17.870400 178.581000 -39.081100 -0.002282 -0.040193 0.032579 -0.084836 19.026700 -40.985400 0.000008 0.000006 -1.406430 4.902360 -60.570700 -11.754300 -0.000006 -0.000006 -0.006474 -0.075080 -19.629100
